<mxfile host="app.diagrams.net" agent="Mozilla/5.0 (Windows NT 10.0; Win64; x64) AppleWebKit/537.36 (KHTML, like Gecko) Chrome/133.0.0.0 Safari/537.36" version="26.0.16">
  <diagram name="Page-1" id="TSKLnBD_Pj5-b2ZAt1OE">
    <mxGraphModel dx="7385" dy="2830" grid="1" gridSize="10" guides="1" tooltips="1" connect="1" arrows="1" fold="1" page="1" pageScale="1" pageWidth="850" pageHeight="1100" math="0" shadow="0">
      <root>
        <mxCell id="0" />
        <mxCell id="1" parent="0" />
        <mxCell id="12A8WBh5H52-HWRBtu85-449" value="Ações Automáticas do Sistema" style="whiteSpace=wrap;strokeWidth=2;" vertex="1" parent="1">
          <mxGeometry x="20" y="124" width="903" height="104" as="geometry" />
        </mxCell>
        <mxCell id="12A8WBh5H52-HWRBtu85-450" value="Personalização de Notas" style="whiteSpace=wrap;strokeWidth=2;" vertex="1" parent="1">
          <mxGeometry x="943" y="124" width="637" height="104" as="geometry" />
        </mxCell>
        <mxCell id="12A8WBh5H52-HWRBtu85-451" value="Gerenciamento de Arquivos" style="whiteSpace=wrap;strokeWidth=2;" vertex="1" parent="1">
          <mxGeometry x="1601" y="124" width="759" height="104" as="geometry" />
        </mxCell>
        <mxCell id="12A8WBh5H52-HWRBtu85-452" value="Organização das Notas e Tarefas" style="whiteSpace=wrap;strokeWidth=2;" vertex="1" parent="1">
          <mxGeometry x="2379" y="124" width="1117" height="104" as="geometry" />
        </mxCell>
        <mxCell id="12A8WBh5H52-HWRBtu85-453" value="Gerenciamento de Notas e Tarefas" style="whiteSpace=wrap;strokeWidth=2;" vertex="1" parent="1">
          <mxGeometry x="3516" y="124" width="2439" height="104" as="geometry" />
        </mxCell>
        <mxCell id="12A8WBh5H52-HWRBtu85-454" value="Autenticação e Conta" style="whiteSpace=wrap;strokeWidth=2;" vertex="1" parent="1">
          <mxGeometry x="5976" y="124" width="1506" height="104" as="geometry" />
        </mxCell>
        <mxCell id="12A8WBh5H52-HWRBtu85-455" value="Registrar" style="whiteSpace=wrap;strokeWidth=2;" vertex="1" parent="1">
          <mxGeometry x="6011" y="149" width="124" height="54" as="geometry" />
        </mxCell>
        <mxCell id="12A8WBh5H52-HWRBtu85-456" value="Login" style="whiteSpace=wrap;strokeWidth=2;" vertex="1" parent="1">
          <mxGeometry x="6184" y="149" width="98" height="54" as="geometry" />
        </mxCell>
        <mxCell id="12A8WBh5H52-HWRBtu85-457" value="Recuperar Senha" style="whiteSpace=wrap;strokeWidth=2;" vertex="1" parent="1">
          <mxGeometry x="6332" y="149" width="180" height="54" as="geometry" />
        </mxCell>
        <mxCell id="12A8WBh5H52-HWRBtu85-458" value="Atualizar Perfil" style="whiteSpace=wrap;strokeWidth=2;" vertex="1" parent="1">
          <mxGeometry x="6562" y="149" width="168" height="54" as="geometry" />
        </mxCell>
        <mxCell id="12A8WBh5H52-HWRBtu85-459" value="Configurar Notificações" style="whiteSpace=wrap;strokeWidth=2;" vertex="1" parent="1">
          <mxGeometry x="6780" y="149" width="228" height="54" as="geometry" />
        </mxCell>
        <mxCell id="12A8WBh5H52-HWRBtu85-460" value="Confirmar Email" style="whiteSpace=wrap;strokeWidth=2;" vertex="1" parent="1">
          <mxGeometry x="7058" y="149" width="176" height="54" as="geometry" />
        </mxCell>
        <mxCell id="12A8WBh5H52-HWRBtu85-461" value="Confirmar SMS" style="whiteSpace=wrap;strokeWidth=2;" vertex="1" parent="1">
          <mxGeometry x="7283" y="149" width="163" height="54" as="geometry" />
        </mxCell>
        <mxCell id="12A8WBh5H52-HWRBtu85-462" value="Usuário" style="whiteSpace=wrap;strokeWidth=2;" vertex="1" parent="1">
          <mxGeometry x="4139" y="20" width="113" height="54" as="geometry" />
        </mxCell>
        <mxCell id="12A8WBh5H52-HWRBtu85-463" value="Criar Nota" style="whiteSpace=wrap;strokeWidth=2;" vertex="1" parent="1">
          <mxGeometry x="3551" y="149" width="133" height="54" as="geometry" />
        </mxCell>
        <mxCell id="12A8WBh5H52-HWRBtu85-464" value="Editar Nota" style="whiteSpace=wrap;strokeWidth=2;" vertex="1" parent="1">
          <mxGeometry x="3735" y="149" width="141" height="54" as="geometry" />
        </mxCell>
        <mxCell id="12A8WBh5H52-HWRBtu85-465" value="Excluir Nota" style="whiteSpace=wrap;strokeWidth=2;" vertex="1" parent="1">
          <mxGeometry x="3926" y="149" width="147" height="54" as="geometry" />
        </mxCell>
        <mxCell id="12A8WBh5H52-HWRBtu85-466" value="Listar Notas" style="whiteSpace=wrap;strokeWidth=2;" vertex="1" parent="1">
          <mxGeometry x="4123" y="149" width="145" height="54" as="geometry" />
        </mxCell>
        <mxCell id="12A8WBh5H52-HWRBtu85-467" value="Criar Tarefa" style="whiteSpace=wrap;strokeWidth=2;" vertex="1" parent="1">
          <mxGeometry x="4318" y="149" width="144" height="54" as="geometry" />
        </mxCell>
        <mxCell id="12A8WBh5H52-HWRBtu85-468" value="Editar Tarefa" style="whiteSpace=wrap;strokeWidth=2;" vertex="1" parent="1">
          <mxGeometry x="4513" y="149" width="153" height="54" as="geometry" />
        </mxCell>
        <mxCell id="12A8WBh5H52-HWRBtu85-469" value="Excluir Tarefa" style="whiteSpace=wrap;strokeWidth=2;" vertex="1" parent="1">
          <mxGeometry x="4715" y="149" width="158" height="54" as="geometry" />
        </mxCell>
        <mxCell id="12A8WBh5H52-HWRBtu85-470" value="Listar Tarefas" style="whiteSpace=wrap;strokeWidth=2;" vertex="1" parent="1">
          <mxGeometry x="4923" y="149" width="156" height="54" as="geometry" />
        </mxCell>
        <mxCell id="12A8WBh5H52-HWRBtu85-471" value="Alterar Status da Tarefa" style="whiteSpace=wrap;strokeWidth=2;" vertex="1" parent="1">
          <mxGeometry x="5129" y="149" width="231" height="54" as="geometry" />
        </mxCell>
        <mxCell id="12A8WBh5H52-HWRBtu85-472" value="Adicionar Prazo à Tarefa" style="whiteSpace=wrap;strokeWidth=2;" vertex="1" parent="1">
          <mxGeometry x="5410" y="149" width="234" height="54" as="geometry" />
        </mxCell>
        <mxCell id="12A8WBh5H52-HWRBtu85-473" value="Marcar como Concluída" style="whiteSpace=wrap;strokeWidth=2;" vertex="1" parent="1">
          <mxGeometry x="5694" y="149" width="227" height="54" as="geometry" />
        </mxCell>
        <mxCell id="12A8WBh5H52-HWRBtu85-474" value="Criar Vínculo" style="whiteSpace=wrap;strokeWidth=2;" vertex="1" parent="1">
          <mxGeometry x="2414" y="149" width="152" height="54" as="geometry" />
        </mxCell>
        <mxCell id="12A8WBh5H52-HWRBtu85-475" value="Editar Vínculo" style="whiteSpace=wrap;strokeWidth=2;" vertex="1" parent="1">
          <mxGeometry x="2617" y="149" width="161" height="54" as="geometry" />
        </mxCell>
        <mxCell id="12A8WBh5H52-HWRBtu85-476" value="Remover Vínculo" style="whiteSpace=wrap;strokeWidth=2;" vertex="1" parent="1">
          <mxGeometry x="2827" y="149" width="180" height="54" as="geometry" />
        </mxCell>
        <mxCell id="12A8WBh5H52-HWRBtu85-477" value="Adicionar Tags" style="whiteSpace=wrap;strokeWidth=2;" vertex="1" parent="1">
          <mxGeometry x="3057" y="149" width="162" height="54" as="geometry" />
        </mxCell>
        <mxCell id="12A8WBh5H52-HWRBtu85-478" value="Compartilhar Nota" style="whiteSpace=wrap;strokeWidth=2;" vertex="1" parent="1">
          <mxGeometry x="3269" y="149" width="192" height="54" as="geometry" />
        </mxCell>
        <mxCell id="12A8WBh5H52-HWRBtu85-479" value="Fazer Upload de Arquivo" style="whiteSpace=wrap;strokeWidth=2;" vertex="1" parent="1">
          <mxGeometry x="1636" y="149" width="235" height="54" as="geometry" />
        </mxCell>
        <mxCell id="12A8WBh5H52-HWRBtu85-480" value="Excluir Arquivo" style="whiteSpace=wrap;strokeWidth=2;" vertex="1" parent="1">
          <mxGeometry x="1920" y="149" width="167" height="54" as="geometry" />
        </mxCell>
        <mxCell id="12A8WBh5H52-HWRBtu85-481" value="Visualizar Arquivo" style="whiteSpace=wrap;strokeWidth=2;" vertex="1" parent="1">
          <mxGeometry x="2137" y="149" width="187" height="54" as="geometry" />
        </mxCell>
        <mxCell id="12A8WBh5H52-HWRBtu85-482" value="Aplicar Estilo" style="whiteSpace=wrap;strokeWidth=2;" vertex="1" parent="1">
          <mxGeometry x="978" y="149" width="154" height="54" as="geometry" />
        </mxCell>
        <mxCell id="12A8WBh5H52-HWRBtu85-483" value="Editar Estilo" style="whiteSpace=wrap;strokeWidth=2;" vertex="1" parent="1">
          <mxGeometry x="1182" y="149" width="147" height="54" as="geometry" />
        </mxCell>
        <mxCell id="12A8WBh5H52-HWRBtu85-484" value="Remover Estilo" style="whiteSpace=wrap;strokeWidth=2;" vertex="1" parent="1">
          <mxGeometry x="1379" y="149" width="166" height="54" as="geometry" />
        </mxCell>
        <mxCell id="12A8WBh5H52-HWRBtu85-485" value="Verificar Email" style="whiteSpace=wrap;strokeWidth=2;" vertex="1" parent="1">
          <mxGeometry x="55" y="149" width="165" height="54" as="geometry" />
        </mxCell>
        <mxCell id="12A8WBh5H52-HWRBtu85-486" value="Verificar SMS" style="whiteSpace=wrap;strokeWidth=2;" vertex="1" parent="1">
          <mxGeometry x="270" y="149" width="152" height="54" as="geometry" />
        </mxCell>
        <mxCell id="12A8WBh5H52-HWRBtu85-487" value="Enviar Notificação" style="whiteSpace=wrap;strokeWidth=2;" vertex="1" parent="1">
          <mxGeometry x="473" y="149" width="191" height="54" as="geometry" />
        </mxCell>
        <mxCell id="12A8WBh5H52-HWRBtu85-488" value="AutoSalvar Nota" style="whiteSpace=wrap;strokeWidth=2;" vertex="1" parent="1">
          <mxGeometry x="713" y="149" width="175" height="54" as="geometry" />
        </mxCell>
        <mxCell id="12A8WBh5H52-HWRBtu85-489" value="Sistema" style="whiteSpace=wrap;strokeWidth=2;" vertex="1" parent="1">
          <mxGeometry x="400" y="20" width="116" height="54" as="geometry" />
        </mxCell>
        <mxCell id="12A8WBh5H52-HWRBtu85-490" value="" style="curved=1;startArrow=none;endArrow=block;exitX=1;exitY=0.53;entryX=0.5;entryY=0;rounded=0;" edge="1" parent="1" source="12A8WBh5H52-HWRBtu85-462" target="12A8WBh5H52-HWRBtu85-455">
          <mxGeometry relative="1" as="geometry">
            <Array as="points">
              <mxPoint x="6072" y="99" />
            </Array>
          </mxGeometry>
        </mxCell>
        <mxCell id="12A8WBh5H52-HWRBtu85-491" value="" style="curved=1;startArrow=none;endArrow=block;exitX=1;exitY=0.53;entryX=0.5;entryY=0;rounded=0;" edge="1" parent="1" source="12A8WBh5H52-HWRBtu85-462" target="12A8WBh5H52-HWRBtu85-456">
          <mxGeometry relative="1" as="geometry">
            <Array as="points">
              <mxPoint x="6233" y="99" />
            </Array>
          </mxGeometry>
        </mxCell>
        <mxCell id="12A8WBh5H52-HWRBtu85-492" value="" style="curved=1;startArrow=none;endArrow=block;exitX=1;exitY=0.52;entryX=0.5;entryY=0;rounded=0;" edge="1" parent="1" source="12A8WBh5H52-HWRBtu85-462" target="12A8WBh5H52-HWRBtu85-457">
          <mxGeometry relative="1" as="geometry">
            <Array as="points">
              <mxPoint x="6422" y="99" />
            </Array>
          </mxGeometry>
        </mxCell>
        <mxCell id="12A8WBh5H52-HWRBtu85-493" value="" style="curved=1;startArrow=none;endArrow=block;exitX=1;exitY=0.52;entryX=0.5;entryY=0;rounded=0;" edge="1" parent="1" source="12A8WBh5H52-HWRBtu85-462" target="12A8WBh5H52-HWRBtu85-458">
          <mxGeometry relative="1" as="geometry">
            <Array as="points">
              <mxPoint x="6646" y="99" />
            </Array>
          </mxGeometry>
        </mxCell>
        <mxCell id="12A8WBh5H52-HWRBtu85-494" value="" style="curved=1;startArrow=none;endArrow=block;exitX=1;exitY=0.52;entryX=0.5;entryY=0;rounded=0;" edge="1" parent="1" source="12A8WBh5H52-HWRBtu85-462" target="12A8WBh5H52-HWRBtu85-459">
          <mxGeometry relative="1" as="geometry">
            <Array as="points">
              <mxPoint x="6894" y="99" />
            </Array>
          </mxGeometry>
        </mxCell>
        <mxCell id="12A8WBh5H52-HWRBtu85-495" value="" style="curved=1;startArrow=none;endArrow=block;exitX=1;exitY=0.52;entryX=0.5;entryY=0;rounded=0;" edge="1" parent="1" source="12A8WBh5H52-HWRBtu85-462" target="12A8WBh5H52-HWRBtu85-460">
          <mxGeometry relative="1" as="geometry">
            <Array as="points">
              <mxPoint x="7145" y="99" />
            </Array>
          </mxGeometry>
        </mxCell>
        <mxCell id="12A8WBh5H52-HWRBtu85-496" value="" style="curved=1;startArrow=none;endArrow=block;exitX=1;exitY=0.52;entryX=0.5;entryY=0;rounded=0;" edge="1" parent="1" source="12A8WBh5H52-HWRBtu85-462" target="12A8WBh5H52-HWRBtu85-461">
          <mxGeometry relative="1" as="geometry">
            <Array as="points">
              <mxPoint x="7365" y="99" />
            </Array>
          </mxGeometry>
        </mxCell>
        <mxCell id="12A8WBh5H52-HWRBtu85-497" value="" style="curved=1;startArrow=none;endArrow=block;exitX=0;exitY=0.59;entryX=0.5;entryY=0;rounded=0;" edge="1" parent="1" source="12A8WBh5H52-HWRBtu85-462" target="12A8WBh5H52-HWRBtu85-463">
          <mxGeometry relative="1" as="geometry">
            <Array as="points">
              <mxPoint x="3618" y="99" />
            </Array>
          </mxGeometry>
        </mxCell>
        <mxCell id="12A8WBh5H52-HWRBtu85-498" value="" style="curved=1;startArrow=none;endArrow=block;exitX=0;exitY=0.64;entryX=0.5;entryY=0;rounded=0;" edge="1" parent="1" source="12A8WBh5H52-HWRBtu85-462" target="12A8WBh5H52-HWRBtu85-464">
          <mxGeometry relative="1" as="geometry">
            <Array as="points">
              <mxPoint x="3805" y="99" />
            </Array>
          </mxGeometry>
        </mxCell>
        <mxCell id="12A8WBh5H52-HWRBtu85-499" value="" style="curved=1;startArrow=none;endArrow=block;exitX=0;exitY=0.78;entryX=0.5;entryY=0;rounded=0;" edge="1" parent="1" source="12A8WBh5H52-HWRBtu85-462" target="12A8WBh5H52-HWRBtu85-465">
          <mxGeometry relative="1" as="geometry">
            <Array as="points">
              <mxPoint x="4000" y="99" />
            </Array>
          </mxGeometry>
        </mxCell>
        <mxCell id="12A8WBh5H52-HWRBtu85-500" value="" style="curved=1;startArrow=none;endArrow=block;exitX=0.5;exitY=1;entryX=0.5;entryY=0;rounded=0;" edge="1" parent="1" source="12A8WBh5H52-HWRBtu85-462" target="12A8WBh5H52-HWRBtu85-466">
          <mxGeometry relative="1" as="geometry">
            <Array as="points" />
          </mxGeometry>
        </mxCell>
        <mxCell id="12A8WBh5H52-HWRBtu85-501" value="" style="curved=1;startArrow=none;endArrow=block;exitX=1;exitY=0.78;entryX=0.5;entryY=0;rounded=0;" edge="1" parent="1" source="12A8WBh5H52-HWRBtu85-462" target="12A8WBh5H52-HWRBtu85-467">
          <mxGeometry relative="1" as="geometry">
            <Array as="points">
              <mxPoint x="4390" y="99" />
            </Array>
          </mxGeometry>
        </mxCell>
        <mxCell id="12A8WBh5H52-HWRBtu85-502" value="" style="curved=1;startArrow=none;endArrow=block;exitX=1;exitY=0.64;entryX=0.5;entryY=0;rounded=0;" edge="1" parent="1" source="12A8WBh5H52-HWRBtu85-462" target="12A8WBh5H52-HWRBtu85-468">
          <mxGeometry relative="1" as="geometry">
            <Array as="points">
              <mxPoint x="4589" y="99" />
            </Array>
          </mxGeometry>
        </mxCell>
        <mxCell id="12A8WBh5H52-HWRBtu85-503" value="" style="curved=1;startArrow=none;endArrow=block;exitX=1;exitY=0.59;entryX=0.5;entryY=0;rounded=0;" edge="1" parent="1" source="12A8WBh5H52-HWRBtu85-462" target="12A8WBh5H52-HWRBtu85-469">
          <mxGeometry relative="1" as="geometry">
            <Array as="points">
              <mxPoint x="4794" y="99" />
            </Array>
          </mxGeometry>
        </mxCell>
        <mxCell id="12A8WBh5H52-HWRBtu85-504" value="" style="curved=1;startArrow=none;endArrow=block;exitX=1;exitY=0.57;entryX=0.5;entryY=0;rounded=0;" edge="1" parent="1" source="12A8WBh5H52-HWRBtu85-462" target="12A8WBh5H52-HWRBtu85-470">
          <mxGeometry relative="1" as="geometry">
            <Array as="points">
              <mxPoint x="5001" y="99" />
            </Array>
          </mxGeometry>
        </mxCell>
        <mxCell id="12A8WBh5H52-HWRBtu85-505" value="" style="curved=1;startArrow=none;endArrow=block;exitX=1;exitY=0.55;entryX=0.5;entryY=0;rounded=0;" edge="1" parent="1" source="12A8WBh5H52-HWRBtu85-462" target="12A8WBh5H52-HWRBtu85-471">
          <mxGeometry relative="1" as="geometry">
            <Array as="points">
              <mxPoint x="5245" y="99" />
            </Array>
          </mxGeometry>
        </mxCell>
        <mxCell id="12A8WBh5H52-HWRBtu85-506" value="" style="curved=1;startArrow=none;endArrow=block;exitX=1;exitY=0.54;entryX=0.5;entryY=0;rounded=0;" edge="1" parent="1" source="12A8WBh5H52-HWRBtu85-462" target="12A8WBh5H52-HWRBtu85-472">
          <mxGeometry relative="1" as="geometry">
            <Array as="points">
              <mxPoint x="5527" y="99" />
            </Array>
          </mxGeometry>
        </mxCell>
        <mxCell id="12A8WBh5H52-HWRBtu85-507" value="" style="curved=1;startArrow=none;endArrow=block;exitX=1;exitY=0.53;entryX=0.5;entryY=0;rounded=0;" edge="1" parent="1" source="12A8WBh5H52-HWRBtu85-462" target="12A8WBh5H52-HWRBtu85-473">
          <mxGeometry relative="1" as="geometry">
            <Array as="points">
              <mxPoint x="5807" y="99" />
            </Array>
          </mxGeometry>
        </mxCell>
        <mxCell id="12A8WBh5H52-HWRBtu85-508" value="" style="curved=1;startArrow=none;endArrow=block;exitX=0;exitY=0.53;entryX=0.5;entryY=0;rounded=0;" edge="1" parent="1" source="12A8WBh5H52-HWRBtu85-462" target="12A8WBh5H52-HWRBtu85-474">
          <mxGeometry relative="1" as="geometry">
            <Array as="points">
              <mxPoint x="2491" y="99" />
            </Array>
          </mxGeometry>
        </mxCell>
        <mxCell id="12A8WBh5H52-HWRBtu85-509" value="" style="curved=1;startArrow=none;endArrow=block;exitX=0;exitY=0.54;entryX=0.5;entryY=0;rounded=0;" edge="1" parent="1" source="12A8WBh5H52-HWRBtu85-462" target="12A8WBh5H52-HWRBtu85-475">
          <mxGeometry relative="1" as="geometry">
            <Array as="points">
              <mxPoint x="2697" y="99" />
            </Array>
          </mxGeometry>
        </mxCell>
        <mxCell id="12A8WBh5H52-HWRBtu85-510" value="" style="curved=1;startArrow=none;endArrow=block;exitX=0;exitY=0.54;entryX=0.5;entryY=0;rounded=0;" edge="1" parent="1" source="12A8WBh5H52-HWRBtu85-462" target="12A8WBh5H52-HWRBtu85-476">
          <mxGeometry relative="1" as="geometry">
            <Array as="points">
              <mxPoint x="2917" y="99" />
            </Array>
          </mxGeometry>
        </mxCell>
        <mxCell id="12A8WBh5H52-HWRBtu85-511" value="" style="curved=1;startArrow=none;endArrow=block;exitX=0;exitY=0.55;entryX=0.5;entryY=0;rounded=0;" edge="1" parent="1" source="12A8WBh5H52-HWRBtu85-462" target="12A8WBh5H52-HWRBtu85-477">
          <mxGeometry relative="1" as="geometry">
            <Array as="points">
              <mxPoint x="3138" y="99" />
            </Array>
          </mxGeometry>
        </mxCell>
        <mxCell id="12A8WBh5H52-HWRBtu85-512" value="" style="curved=1;startArrow=none;endArrow=block;exitX=0;exitY=0.57;entryX=0.5;entryY=0;rounded=0;" edge="1" parent="1" source="12A8WBh5H52-HWRBtu85-462" target="12A8WBh5H52-HWRBtu85-478">
          <mxGeometry relative="1" as="geometry">
            <Array as="points">
              <mxPoint x="3365" y="99" />
            </Array>
          </mxGeometry>
        </mxCell>
        <mxCell id="12A8WBh5H52-HWRBtu85-513" value="" style="curved=1;startArrow=none;endArrow=block;exitX=0;exitY=0.52;entryX=0.5;entryY=0;rounded=0;" edge="1" parent="1" source="12A8WBh5H52-HWRBtu85-462" target="12A8WBh5H52-HWRBtu85-479">
          <mxGeometry relative="1" as="geometry">
            <Array as="points">
              <mxPoint x="1753" y="99" />
            </Array>
          </mxGeometry>
        </mxCell>
        <mxCell id="12A8WBh5H52-HWRBtu85-514" value="" style="curved=1;startArrow=none;endArrow=block;exitX=0;exitY=0.52;entryX=0.5;entryY=0;rounded=0;" edge="1" parent="1" source="12A8WBh5H52-HWRBtu85-462" target="12A8WBh5H52-HWRBtu85-480">
          <mxGeometry relative="1" as="geometry">
            <Array as="points">
              <mxPoint x="2004" y="99" />
            </Array>
          </mxGeometry>
        </mxCell>
        <mxCell id="12A8WBh5H52-HWRBtu85-515" value="" style="curved=1;startArrow=none;endArrow=block;exitX=0;exitY=0.53;entryX=0.5;entryY=0;rounded=0;" edge="1" parent="1" source="12A8WBh5H52-HWRBtu85-462" target="12A8WBh5H52-HWRBtu85-481">
          <mxGeometry relative="1" as="geometry">
            <Array as="points">
              <mxPoint x="2231" y="99" />
            </Array>
          </mxGeometry>
        </mxCell>
        <mxCell id="12A8WBh5H52-HWRBtu85-516" value="" style="curved=1;startArrow=none;endArrow=block;exitX=0;exitY=0.52;entryX=0.5;entryY=0;rounded=0;" edge="1" parent="1" source="12A8WBh5H52-HWRBtu85-462" target="12A8WBh5H52-HWRBtu85-482">
          <mxGeometry relative="1" as="geometry">
            <Array as="points">
              <mxPoint x="1055" y="99" />
            </Array>
          </mxGeometry>
        </mxCell>
        <mxCell id="12A8WBh5H52-HWRBtu85-517" value="" style="curved=1;startArrow=none;endArrow=block;exitX=0;exitY=0.52;entryX=0.5;entryY=0;rounded=0;" edge="1" parent="1" source="12A8WBh5H52-HWRBtu85-462" target="12A8WBh5H52-HWRBtu85-483">
          <mxGeometry relative="1" as="geometry">
            <Array as="points">
              <mxPoint x="1256" y="99" />
            </Array>
          </mxGeometry>
        </mxCell>
        <mxCell id="12A8WBh5H52-HWRBtu85-518" value="" style="curved=1;startArrow=none;endArrow=block;exitX=0;exitY=0.52;entryX=0.5;entryY=0;rounded=0;" edge="1" parent="1" source="12A8WBh5H52-HWRBtu85-462" target="12A8WBh5H52-HWRBtu85-484">
          <mxGeometry relative="1" as="geometry">
            <Array as="points">
              <mxPoint x="1463" y="99" />
            </Array>
          </mxGeometry>
        </mxCell>
        <mxCell id="12A8WBh5H52-HWRBtu85-519" value="" style="curved=1;startArrow=none;endArrow=block;exitX=0;exitY=0.67;entryX=0.5;entryY=0;rounded=0;" edge="1" parent="1" source="12A8WBh5H52-HWRBtu85-489" target="12A8WBh5H52-HWRBtu85-485">
          <mxGeometry relative="1" as="geometry">
            <Array as="points">
              <mxPoint x="138" y="99" />
            </Array>
          </mxGeometry>
        </mxCell>
        <mxCell id="12A8WBh5H52-HWRBtu85-520" value="" style="curved=1;startArrow=none;endArrow=block;exitX=0;exitY=1;entryX=0.5;entryY=0;rounded=0;" edge="1" parent="1" source="12A8WBh5H52-HWRBtu85-489" target="12A8WBh5H52-HWRBtu85-486">
          <mxGeometry relative="1" as="geometry">
            <Array as="points">
              <mxPoint x="347" y="99" />
            </Array>
          </mxGeometry>
        </mxCell>
        <mxCell id="12A8WBh5H52-HWRBtu85-521" value="" style="curved=1;startArrow=none;endArrow=block;exitX=0.99;exitY=1;entryX=0.5;entryY=0;rounded=0;" edge="1" parent="1" source="12A8WBh5H52-HWRBtu85-489" target="12A8WBh5H52-HWRBtu85-487">
          <mxGeometry relative="1" as="geometry">
            <Array as="points">
              <mxPoint x="568" y="99" />
            </Array>
          </mxGeometry>
        </mxCell>
        <mxCell id="12A8WBh5H52-HWRBtu85-522" value="" style="curved=1;startArrow=none;endArrow=block;exitX=0.99;exitY=0.66;entryX=0.5;entryY=0;rounded=0;" edge="1" parent="1" source="12A8WBh5H52-HWRBtu85-489" target="12A8WBh5H52-HWRBtu85-488">
          <mxGeometry relative="1" as="geometry">
            <Array as="points">
              <mxPoint x="801" y="99" />
            </Array>
          </mxGeometry>
        </mxCell>
      </root>
    </mxGraphModel>
  </diagram>
</mxfile>
